<?xml version="1.0" encoding="UTF-8" standalone="no"?>
<svg width="11px" height="75px" viewBox="0 0 11 75" version="1.1" xmlns="http://www.w3.org/2000/svg" xmlns:xlink="http://www.w3.org/1999/xlink" xmlns:sketch="http://www.bohemiancoding.com/sketch/ns">
    <!-- Generator: Sketch 3.4.3 (16044) - http://www.bohemiancoding.com/sketch -->
    <title>INK PENCIL</title>
    <desc>Created with Sketch.</desc>
    <defs></defs>
    <g id="Page-1" stroke="none" stroke-width="1" fill="none" fill-rule="evenodd" sketch:type="MSPage">
        <g id="INK-PENCIL" sketch:type="MSLayerGroup" transform="translate(1.000000, 2.000000)" stroke="#585858">
            <path d="M2,20 L2,13.6774766 C1.02714776,12.2995752 0.723284456,9.99623339 1,7.5 C2.04125977,2.98583984 4.5,0 4.5,0 C4.5,0 6.93530273,3.2355957 8,7.5 C8.31462177,9.76012755 7.9968473,12.1379997 7,13.5952592 L7,20 L7.0026083,20 C8.10573727,20 9,20.9025574 9,22.0065993 L9,67.4989288 C9,69.9848018 6.98022433,72 4.5,72 C2.01471863,72 0,69.9934007 0,67.4989288 L0,22.0065993 C0,20.8983851 0.895857811,20 1.9973917,20 L2,20 Z" id="ink-pencil" stroke-width="2" sketch:type="MSShapeGroup"></path>
            <circle id="Oval-5" opacity="0.6" sketch:type="MSShapeGroup" cx="4.5" cy="4.5" r="0.5"></circle>
        </g>
    </g>
</svg>